<?xml version="1.0" standalone="no"?>
<!DOCTYPE svg PUBLIC "-//W3C//DTD SVG 20010904//EN"
 "http://www.w3.org/TR/2001/REC-SVG-20010904/DTD/svg10.dtd">
<svg version="1.0" xmlns="http://www.w3.org/2000/svg"
 width="300.000000pt" height="300.000000pt" viewBox="0 0 300.000000 300.000000"
 preserveAspectRatio="xMidYMid meet">
<metadata>
Created by potrace 1.10, written by Peter Selinger 2001-2011
</metadata>
<g transform="translate(0.000000,300.000000) scale(0.100000,-0.100000)"
fill="#000000" stroke="none">
<path d="M150 1933 l0 -133 465 0 465 0 0 133 0 132 -465 0 -465 0 0 -132z
m870 0 l0 -73 -405 0 -405 0 0 73 0 72 405 0 405 0 0 -72z"/>
<path d="M2140 1648 c0 -2 -1 -65 -3 -141 l-2 -137 29 0 c28 0 28 1 24 45 -3
25 -4 45 -2 45 1 0 17 -20 35 -45 25 -35 39 -45 61 -45 15 0 28 3 28 6 0 3
-16 26 -36 50 -40 48 -40 46 15 107 l25 27 -32 0 c-24 0 -38 -8 -59 -35 -15
-19 -30 -35 -33 -35 -3 0 -4 36 -2 80 l4 80 -26 0 c-14 0 -26 -1 -26 -2z"/>
<path d="M2800 1601 l0 -49 -43 5 c-39 5 -46 2 -65 -22 -31 -39 -30 -108 2
-140 20 -20 33 -23 90 -23 l66 0 0 139 0 139 -25 0 c-23 0 -25 -3 -25 -49z
m-12 -93 c17 -17 15 -73 -3 -88 -12 -10 -21 -10 -40 -2 -43 20 -30 102 15 102
9 0 21 -5 28 -12z"/>
<path d="M150 1500 l0 -130 31 0 32 0 -7 55 -6 55 60 0 60 0 0 -55 c0 -53 1
-55 28 -55 l27 0 0 130 0 130 -27 0 c-27 0 -28 -2 -28 -50 l0 -50 -60 0 -61 0
7 50 7 50 -32 0 -31 0 0 -130z"/>
<path d="M900 1511 c0 -113 1 -121 22 -135 12 -9 33 -16 45 -16 18 0 23 6 23
25 0 14 -3 24 -7 24 -31 -5 -33 3 -33 111 l0 110 -25 0 -25 0 0 -119z"/>
<path d="M1220 1590 c0 -29 -4 -40 -15 -40 -8 0 -15 -9 -15 -20 0 -12 7 -20
18 -20 14 0 17 -10 17 -61 0 -68 16 -89 67 -89 24 0 28 4 28 26 0 19 -4 25
-14 21 -21 -8 -32 12 -34 61 l-1 42 40 0 39 0 0 -55 c0 -42 5 -60 21 -76 28
-28 73 -23 77 9 2 15 -1 23 -10 21 -33 -4 -38 2 -38 51 0 47 2 50 25 50 18 0
25 5 25 20 0 15 -7 20 -25 20 -22 0 -25 4 -25 40 0 36 -2 40 -25 40 -22 0 -25
-4 -25 -40 l0 -40 -40 0 -40 0 6 40 c6 40 6 40 -25 40 -30 0 -31 -2 -31 -40z"/>
<path d="M1540 1500 l0 -130 25 0 c23 0 25 4 25 45 l0 45 44 0 c64 0 96 29 96
85 0 64 -31 85 -121 85 l-69 0 0 -130z m135 45 c0 -28 -3 -30 -42 -33 l-43 -3
0 36 0 36 43 -3 c39 -3 42 -5 42 -33z"/>
<path d="M452 1553 c-19 -7 -42 -58 -42 -93 0 -45 47 -90 93 -90 50 0 67 9 67
35 0 22 -2 22 -29 12 -34 -12 -81 3 -81 26 0 10 14 12 60 9 l60 -4 0 29 c0 47
-34 83 -78 82 -20 0 -43 -3 -50 -6z m76 -50 c2 -9 -8 -13 -33 -13 -33 0 -36 2
-25 15 15 18 51 16 58 -2z"/>
<path d="M600 1538 c5 -13 19 -56 31 -95 18 -64 24 -73 44 -73 25 0 29 8 41
73 6 37 24 52 24 20 0 -10 5 -35 11 -55 8 -30 15 -38 33 -38 20 0 26 11 49 88
15 49 27 92 27 95 0 4 -11 7 -25 7 -22 0 -26 -6 -36 -59 -12 -55 -29 -74 -29
-33 0 43 -21 92 -40 92 -19 0 -40 -49 -40 -92 0 -38 -17 -15 -29 37 -12 51
-14 55 -42 55 -26 0 -28 -2 -19 -22z"/>
<path d="M1029 1534 c-36 -38 -34 -107 4 -140 46 -39 127 -31 127 12 0 21 -3
23 -19 14 -28 -14 -57 -12 -75 6 -26 26 -19 30 44 26 60 -4 60 -4 60 22 0 29
-16 66 -34 78 -26 18 -83 8 -107 -18z m91 -29 c11 -13 7 -15 -30 -15 -37 0
-41 2 -30 15 7 8 20 15 30 15 10 0 23 -7 30 -15z"/>
<path d="M1777 1553 c-4 -3 -7 -14 -7 -23 0 -13 9 -17 42 -16 33 1 43 -3 46
-16 3 -15 -2 -17 -27 -12 -43 9 -81 -17 -81 -55 0 -44 26 -60 98 -60 l62 1 0
77 c0 94 -13 111 -82 111 -24 0 -48 -3 -51 -7z m83 -123 c0 -15 -7 -20 -29
-20 -31 0 -47 13 -36 30 3 6 19 10 36 10 22 0 29 -5 29 -20z"/>
<path d="M1992 1553 c-19 -7 -42 -58 -42 -93 0 -74 117 -126 141 -64 12 33 7
39 -20 22 -15 -9 -26 -10 -38 -2 -65 41 -20 130 48 94 19 -11 21 -10 16 5 -4
9 -7 23 -7 31 0 10 -12 14 -42 13 -24 0 -49 -3 -56 -6z"/>
<path d="M2353 1553 c-7 -2 -13 -15 -13 -28 0 -22 2 -23 30 -12 22 8 35 8 47
1 31 -19 26 -33 -9 -28 -39 7 -88 -25 -88 -57 0 -39 33 -58 104 -57 l66 0 0
65 c0 62 -11 100 -34 115 -12 9 -84 9 -103 1z m82 -123 c0 -18 -43 -26 -57
-12 -16 16 2 33 30 30 16 -2 27 -9 27 -18z"/>
<path d="M2535 1464 l0 -94 27 0 c26 0 27 2 30 68 3 65 4 67 31 70 21 3 27 9
27 27 0 22 -4 23 -57 24 l-58 0 0 -95z"/>
<path d="M1373 1264 c-8 -21 13 -42 28 -27 13 13 5 43 -11 43 -6 0 -13 -7 -17
-16z"/>
<path d="M150 1140 l0 -130 85 0 c69 0 85 3 85 15 0 12 -14 15 -65 15 l-65 0
0 45 0 45 60 0 c47 0 60 3 60 15 0 12 -13 15 -60 15 l-60 0 0 40 0 40 65 0
c51 0 65 3 65 15 0 12 -16 15 -85 15 l-85 0 0 -130z"/>
<path d="M590 1225 c0 -20 -5 -25 -25 -25 -16 0 -25 -6 -25 -15 0 -9 9 -15 25
-15 24 0 25 -2 25 -64 0 -71 14 -96 56 -96 31 0 32 27 2 32 -21 3 -23 9 -26
66 -3 61 -2 62 23 62 16 0 25 6 25 15 0 9 -9 15 -25 15 -20 0 -25 5 -25 25 0
16 -6 25 -15 25 -9 0 -15 -9 -15 -25z"/>
<path d="M370 1105 c0 -78 3 -95 15 -95 12 0 15 14 15 68 0 75 10 92 51 92 33
0 39 -14 39 -96 0 -50 3 -64 15 -64 24 0 21 151 -3 173 -22 20 -73 22 -90 5
-9 -9 -12 -9 -12 0 0 7 -7 12 -15 12 -12 0 -15 -17 -15 -95z"/>
<path d="M732 1193 c-7 -3 -19 -18 -27 -33 -37 -72 0 -149 72 -150 40 0 63 9
63 25 0 9 -12 11 -44 8 -37 -5 -46 -2 -60 18 -9 13 -16 27 -16 31 0 5 29 8 65
8 59 0 65 2 65 21 0 23 -18 60 -34 71 -12 9 -64 9 -84 1z m66 -29 c36 -25 28
-41 -23 -40 -48 1 -56 13 -29 40 19 20 24 20 52 0z"/>
<path d="M890 1105 c0 -88 2 -95 20 -95 17 0 19 8 22 78 3 76 3 77 31 80 33 4
37 32 4 32 -13 0 -29 -6 -36 -12 -11 -10 -13 -10 -7 0 5 8 0 12 -13 12 -20 0
-21 -6 -21 -95z"/>
<path d="M1020 1070 c0 -120 1 -130 19 -130 16 0 18 6 13 46 -5 44 -4 46 16
35 60 -32 112 1 119 76 5 45 2 55 -20 77 -28 28 -84 35 -105 14 -9 -9 -12 -9
-12 0 0 7 -7 12 -15 12 -13 0 -15 -21 -15 -130z m124 78 c33 -46 7 -108 -44
-108 -19 0 -33 7 -40 19 -14 27 -13 84 2 99 20 20 65 14 82 -10z"/>
<path d="M1240 1105 c0 -78 3 -95 15 -95 12 0 15 14 15 68 0 73 10 92 47 92
14 0 23 6 23 15 0 18 -41 20 -58 3 -9 -9 -12 -9 -12 0 0 7 -7 12 -15 12 -12 0
-15 -17 -15 -95z"/>
<path d="M1370 1105 c0 -88 1 -95 20 -95 19 0 20 7 20 95 0 88 -1 95 -20 95
-19 0 -20 -7 -20 -95z"/>
<path d="M1467 1182 c-32 -35 -13 -71 51 -93 44 -15 45 -49 1 -49 -17 0 -39 5
-50 10 -16 9 -19 7 -19 -9 0 -22 18 -31 64 -31 46 0 68 20 64 55 -2 25 -12 34
-50 53 -53 25 -58 36 -28 52 16 8 28 8 50 -4 28 -13 30 -13 30 4 0 34 -85 43
-113 12z"/>
<path d="M1640 1175 c-18 -19 -23 -36 -23 -72 0 -62 35 -96 97 -91 27 2 42 8
44 19 2 12 -7 15 -45 15 -40 -1 -49 2 -60 24 l-12 25 69 3 70 3 -6 27 c-12 53
-32 72 -72 72 -28 0 -45 -7 -62 -25z m81 -5 c10 -6 19 -18 19 -28 0 -13 -10
-17 -45 -18 -51 -1 -59 15 -23 40 27 19 24 19 49 6z"/>
</g>
</svg>
