<?xml version="1.0" standalone="no"?>
<!DOCTYPE svg PUBLIC "-//W3C//DTD SVG 20010904//EN"
 "http://www.w3.org/TR/2001/REC-SVG-20010904/DTD/svg10.dtd">
<svg version="1.0" xmlns="http://www.w3.org/2000/svg"
 width="300.000000pt" height="300.000000pt" viewBox="0 0 300.000000 300.000000"
 preserveAspectRatio="xMidYMid meet">
<metadata>
Created by potrace 1.10, written by Peter Selinger 2001-2011
</metadata>
<g transform="translate(0.000000,300.000000) scale(0.100000,-0.100000)"
fill="#000000" stroke="none">
<path d="M911 2493 c6 -362 8 -383 51 -513 71 -220 235 -428 450 -574 l88 -59
85 57 c257 170 428 415 484 691 17 86 21 146 23 428 l3 327 -595 0 -595 0 6
-357z m1157 328 c11 -7 10 -10 -3 -15 -22 -8 -1108 -8 -1130 0 -13 5 -14 8 -3
15 17 11 1119 11 1136 0z m-14 -53 c9 -35 7 -136 -3 -142 -5 -3 -16 9 -24 27
-35 73 -129 99 -212 60 -33 -16 -37 -16 -64 0 -18 10 -50 17 -82 17 -60 0
-102 -26 -139 -85 -12 -19 -26 -35 -30 -35 -5 0 -20 19 -34 43 -14 23 -38 50
-55 60 -37 22 -110 22 -156 0 -32 -15 -38 -16 -63 -2 -45 26 -128 25 -168 -3
-18 -13 -34 -26 -34 -29 0 -12 -37 -48 -44 -42 -8 8 -8 100 0 131 l6 22 548 0
548 0 6 -22z m-870 -89 c26 -12 26 -13 26 -127 0 -105 -1 -114 -17 -107 -47
19 -89 26 -119 20 l-34 -6 0 115 c0 100 2 115 18 120 25 7 95 -1 126 -15z
m200 15 c13 -5 16 -25 16 -121 l0 -114 -34 6 c-30 6 -72 -1 -118 -20 -17 -7
-18 2 -18 108 l0 115 38 15 c39 17 89 21 116 11z m360 -15 c26 -12 26 -13 26
-127 0 -105 -1 -114 -17 -107 -47 19 -89 26 -119 20 l-34 -6 0 115 c0 100 2
115 18 120 25 7 95 -1 126 -15z m201 15 c19 -5 20 -13 20 -120 l0 -115 -37 6
c-33 6 -74 -1 -120 -20 -17 -7 -18 2 -18 109 0 64 1 116 3 116 1 0 20 7 42 15
43 15 77 18 110 9z m-925 -138 l0 -113 68 0 c44 1 78 -5 100 -16 30 -17 34
-17 65 0 21 11 55 17 100 16 l67 0 0 113 c0 69 4 114 10 114 6 0 10 -16 10
-35 0 -28 4 -35 20 -35 11 0 20 -4 20 -10 0 -5 -9 -10 -20 -10 -16 0 -20 -7
-20 -34 0 -26 5 -36 20 -41 11 -3 20 -11 20 -16 0 -5 -9 -9 -20 -9 -16 0 -20
-7 -20 -33 l0 -34 -54 10 c-44 8 -63 7 -103 -7 -60 -22 -66 -22 -126 0 -40 14
-59 15 -103 7 l-54 -10 0 34 c0 30 -3 33 -20 28 -16 -5 -20 -2 -20 14 0 14 6
21 20 21 16 0 20 7 20 34 0 29 -3 33 -20 29 -16 -4 -20 0 -20 17 0 17 4 21 20
17 17 -4 20 0 20 29 0 19 5 34 10 34 6 0 10 -45 10 -114z m560 0 l0 -113 68 1
c45 0 78 -5 101 -16 31 -16 35 -16 65 -1 20 11 54 17 99 16 l67 0 0 113 c0 69
4 114 10 114 6 0 10 -16 10 -35 0 -28 4 -35 20 -35 11 0 20 -4 20 -10 0 -5 -9
-10 -20 -10 -16 0 -20 -7 -20 -34 0 -25 5 -35 20 -39 11 -3 20 -10 20 -16 0
-6 -9 -11 -20 -11 -16 0 -20 -7 -20 -34 l0 -34 -42 10 c-50 11 -113 3 -147
-18 -21 -15 -27 -14 -64 2 -40 18 -105 24 -157 14 -23 -5 -25 -2 -22 28 3 28
1 32 -19 30 -15 -2 -24 3 -27 15 -3 13 3 17 22 17 23 0 26 4 26 35 0 33 -2 35
-26 29 -22 -6 -25 -4 -22 12 2 12 12 19 27 18 21 -1 23 3 18 33 -3 18 -2 33 4
33 5 0 9 -50 9 -114z m-63 -2 c3 -8 -1 -23 -10 -32 -15 -14 -17 -14 -23 1 -8
21 1 47 16 47 6 0 13 -7 17 -16z m13 -117 c23 -34 70 -64 70 -45 0 15 109 5
145 -13 31 -16 60 -12 112 13 13 6 48 9 82 5 52 -4 62 -2 80 17 12 12 21 28
21 35 0 7 5 9 11 5 19 -12 4 -283 -21 -379 -25 -99 -43 -116 -82 -78 -15 14
-25 31 -21 36 3 6 2 7 -4 4 -6 -4 -45 26 -87 66 -42 40 -80 70 -83 67 -3 -3
-3 3 0 12 4 13 2 15 -10 11 -12 -5 -14 -3 -8 8 4 8 5 11 1 8 -7 -7 -50 29
-160 134 -34 31 -65 57 -71 57 -14 0 -54 -29 -90 -65 -17 -16 -77 -73 -134
-125 -57 -52 -137 -126 -178 -165 -41 -38 -79 -71 -83 -73 -16 -6 -39 44 -55
123 -18 87 -32 312 -21 341 6 16 10 14 35 -13 26 -28 31 -30 80 -25 36 3 69
-1 105 -13 47 -16 58 -17 97 -5 24 7 74 14 110 15 69 2 89 8 89 27 0 13 30 48
40 48 4 0 18 -15 30 -33z m226 -284 c200 -185 252 -238 240 -245 -8 -5 -31
-39 -51 -76 -60 -115 -173 -251 -278 -335 -71 -58 -148 -107 -167 -107 -24 0
-171 106 -244 177 -73 71 -161 188 -205 274 -19 35 -39 67 -45 71 -7 5 -4 14
10 29 34 34 479 448 482 448 2 1 118 -105 258 -236z"/>
<path d="M1071 2625 c0 -11 4 -27 9 -35 9 -13 11 -13 20 0 5 8 9 22 9 30 0 10
-2 11 -6 3 -7 -18 -21 -16 -26 5 -4 14 -5 14 -6 -3z"/>
<path d="M1159 2633 c-11 -3 -15 -11 -11 -28 6 -33 18 -32 25 3 6 31 7 29 -14
25z"/>
<path d="M1076 2544 c-3 -9 -6 -23 -6 -32 0 -15 2 -15 10 -2 9 13 11 13 20 0
11 -17 13 -6 4 28 -7 26 -19 29 -28 6z"/>
<path d="M1152 2540 c-14 -23 -16 -33 -3 -26 5 4 11 0 14 -6 9 -25 19 1 11 26
-9 25 -9 26 -22 6z"/>
<path d="M1303 2612 c0 -25 4 -27 41 -28 23 -1 35 0 29 3 -7 3 -13 11 -13 18
0 7 6 15 13 18 6 2 8 8 4 13 -5 5 -16 0 -26 -12 -17 -21 -18 -21 -32 -3 -15
18 -16 18 -16 -9z"/>
<path d="M1260 2605 c0 -17 5 -25 18 -25 14 0 15 2 2 10 -13 9 -13 10 0 10 12
0 13 2 1 9 -11 7 -11 9 0 14 10 4 9 6 -3 6 -13 1 -18 -7 -18 -24z"/>
<path d="M1256 2553 c-3 -4 -6 -14 -6 -24 0 -19 26 -33 36 -18 4 6 11 6 20 -2
19 -16 23 -10 17 22 -4 20 -11 26 -33 27 -15 0 -31 -2 -34 -5z"/>
<path d="M1343 2535 c1 -19 7 -30 17 -30 10 0 16 11 17 30 1 20 0 23 -4 8 -2
-13 -8 -23 -13 -23 -5 0 -11 10 -13 23 -4 15 -5 12 -4 -8z"/>
<path d="M1630 2605 c0 -17 5 -25 18 -25 14 0 15 2 2 10 -13 9 -13 10 0 10 12
0 13 2 1 9 -11 7 -11 9 0 14 10 4 9 6 -3 6 -13 1 -18 -7 -18 -24z"/>
<path d="M1670 2603 c0 -22 2 -25 10 -13 6 10 10 11 10 3 0 -8 13 -13 33 -13
21 0 28 3 19 9 -8 4 -14 12 -14 16 0 4 6 12 14 16 9 6 7 9 -9 9 -15 0 -23 -7
-26 -22 l-4 -23 -2 23 c-2 33 -31 28 -31 -5z"/>
<path d="M1630 2528 c0 -30 1 -31 15 -12 19 25 19 44 0 44 -10 0 -15 -10 -15
-32z"/>
<path d="M1670 2530 c0 -20 5 -30 15 -30 8 0 15 5 15 10 0 6 -6 10 -12 10 -9
0 -8 4 2 10 13 9 13 10 0 10 -13 0 -13 1 0 10 13 8 12 10 -2 10 -13 0 -18 -8
-18 -30z"/>
<path d="M1711 2528 c0 -18 3 -27 6 -20 4 10 8 10 18 2 11 -9 13 -6 12 17 -2
17 -9 29 -20 31 -13 3 -17 -3 -16 -30z"/>
<path d="M1841 2617 c-6 -16 -11 -29 -11 -30 0 -1 20 -2 45 -3 40 -1 45 2 45
22 0 21 -22 39 -34 27 -3 -4 -6 -16 -6 -27 -1 -17 -3 -15 -14 9 l-14 30 -11
-28z"/>
<path d="M1816 2552 c7 -4 14 -18 17 -32 4 -25 4 -25 6 3 1 34 21 36 21 2 0
-16 6 -25 15 -25 18 0 20 16 3 23 -9 4 -8 6 2 6 13 1 13 2 0 11 -11 7 -12 10
-2 10 7 0 20 -7 28 -15 11 -11 12 -15 3 -15 -10 0 -10 -3 -1 -12 9 -9 15 -9
25 1 10 10 8 15 -6 26 -18 13 -18 13 0 17 10 2 -13 5 -52 6 -38 1 -65 -1 -59
-6z"/>
<path d="M1636 2176 c-4 -15 -27 -59 -51 -98 -25 -40 -57 -108 -71 -152 -31
-94 -56 -147 -78 -165 -23 -19 -21 -2 11 104 14 50 26 114 27 143 1 47 -3 57
-27 78 -15 13 -38 24 -50 24 -30 -1 -98 -33 -118 -56 -22 -25 -34 -64 -20 -64
6 0 11 5 11 10 0 6 4 10 9 10 5 0 7 -9 4 -20 -12 -46 47 -11 61 37 13 42 81
41 92 -1 7 -30 -9 -69 -60 -140 -92 -129 -109 -207 -64 -288 63 -111 255 -129
348 -33 32 33 33 35 11 35 -27 0 -81 27 -81 40 0 5 11 12 25 16 16 4 32 20 42
42 10 20 25 44 35 54 10 10 18 23 18 30 0 6 8 20 17 30 13 15 17 38 16 117 0
98 -19 176 -50 211 -7 8 -21 26 -32 39 l-18 24 -7 -27z m21 -51 c-5 -31 -89
-165 -103 -165 -12 0 12 57 43 103 20 29 39 62 44 75 13 34 22 26 16 -13z m43
-40 c0 -32 -116 -165 -144 -165 -5 0 17 33 82 123 13 18 26 45 29 61 6 27 7
28 20 11 7 -11 13 -24 13 -30z m20 -59 c0 -29 -60 -86 -122 -116 l-43 -21 62
58 c34 32 67 68 73 81 14 29 30 28 30 -2z m0 -86 c-13 -24 -132 -84 -152 -77
-7 2 12 18 43 35 30 18 66 43 79 57 28 29 48 19 30 -15z m6 -55 c-8 -23 -60
-44 -123 -50 l-58 -6 75 31 c41 16 81 37 89 45 17 17 27 5 17 -20z m-6 -42
c-1 -32 -51 -53 -123 -53 -47 0 -49 1 -31 15 10 8 33 15 49 15 17 1 44 7 60
15 36 16 45 18 45 8z m-318 -20 c-21 -40 10 -90 47 -78 12 3 33 23 47 43 l26
37 -5 -39 c-9 -61 -31 -86 -76 -86 -49 0 -71 -22 -47 -48 17 -20 97 -42 148
-42 29 0 68 -23 68 -41 0 -13 -62 -29 -113 -29 -135 0 -209 101 -158 216 23
50 48 84 63 84 5 0 5 -8 0 -17z m278 -58 c-8 -10 -30 -15 -64 -15 -64 0 -92
15 -48 25 18 3 35 4 40 2 4 -3 23 -2 42 2 42 9 47 7 30 -14z m-65 -34 c37 -6
38 -8 19 -19 -15 -8 -32 -8 -59 -1 -20 6 -39 8 -42 5 -8 -8 44 -26 75 -26 23
-1 19 -5 -26 -26 -39 -19 -60 -24 -80 -18 -15 4 -35 6 -44 5 -22 -3 -58 16
-58 31 0 7 4 7 13 0 6 -5 28 -12 47 -14 19 -3 44 -8 55 -12 16 -7 15 -4 -5 14
-21 18 -21 21 -5 15 11 -5 34 -10 50 -12 l30 -4 -30 17 c-16 9 -31 18 -33 19
-1 1 0 10 4 19 7 17 26 19 89 7z"/>
<path d="M1258 1940 c-3 -16 -2 -30 1 -30 11 0 32 41 26 50 -11 19 -23 10 -27
-20z"/>
<path d="M854 1752 c-20 -56 -21 -57 -71 -67 l-51 -10 25 -50 c14 -27 27 -52
29 -54 3 -3 26 16 52 42 26 26 51 47 54 47 4 0 16 -15 27 -32 42 -66 49 -72
65 -58 14 10 13 16 -8 44 -30 39 -86 151 -86 170 0 36 -17 20 -36 -32z"/>
<path d="M2117 1804 c-4 -4 -7 -14 -7 -22 0 -20 -55 -127 -86 -167 -22 -29
-23 -34 -9 -45 17 -14 24 -8 66 58 11 17 23 32 27 32 3 0 28 -21 54 -47 26
-26 49 -45 52 -42 2 2 15 27 29 54 l25 50 -51 10 c-50 10 -50 11 -72 68 -11
32 -24 54 -28 51z"/>
<path d="M818 1561 l-66 -58 26 -34 c46 -62 136 -150 198 -194 385 -278 915
-210 1211 157 l56 69 -39 40 c-21 23 -52 50 -67 61 l-28 20 -17 -23 c-39 -57
-152 -164 -217 -204 -107 -67 -208 -97 -342 -103 -141 -6 -232 13 -355 75 -93
47 -209 144 -259 218 -13 19 -26 35 -29 35 -3 0 -35 -26 -72 -59z m125 -55
c31 -36 57 -69 57 -75 0 -6 -9 -16 -19 -23 -10 -6 -17 -17 -14 -24 2 -7 -5
-15 -17 -19 -18 -6 -33 3 -76 46 -71 70 -74 83 -33 125 18 19 35 34 38 34 4 0
32 -29 64 -64z m1214 32 c18 -18 33 -37 33 -43 0 -13 -119 -145 -131 -145 -11
0 -68 61 -69 73 0 9 122 147 130 147 2 0 19 -14 37 -32z m-1112 -149 c11 -17
-3 -23 -21 -9 -14 12 -15 10 -9 -23 6 -33 5 -37 -13 -37 -22 0 -49 27 -38 38
4 4 12 -1 17 -11 14 -24 32 -11 19 14 -6 11 -8 24 -5 29 8 13 42 13 50 -1z
m954 -21 c16 -18 27 -36 25 -40 -9 -14 -21 -8 -32 15 -11 20 -11 20 -5 -7 4
-21 2 -27 -7 -24 -12 4 -26 88 -15 88 3 0 18 -15 34 -32z m-59 -18 c11 -6 17
-17 14 -24 -3 -8 0 -17 5 -21 6 -3 9 -11 5 -16 -3 -6 -17 5 -30 25 -33 48 -31
56 6 36z m-819 -11 c11 -5 17 -14 13 -20 -4 -6 -11 -6 -20 2 -8 6 -18 8 -22 4
-4 -4 -1 -10 6 -12 6 -3 12 -9 12 -15 0 -6 -7 -8 -15 -5 -8 4 -17 2 -20 -4 -4
-5 1 -12 9 -15 16 -6 22 -24 9 -24 -5 0 -16 7 -26 14 -17 13 -17 15 0 50 20
39 25 41 54 25z m774 -52 c8 -24 6 -31 -10 -43 -24 -18 -36 -14 -54 18 -20 35
-8 60 26 56 20 -2 30 -11 38 -31z m-694 13 c10 -6 19 -16 19 -22 0 -7 -5 -6
-15 2 -9 7 -19 10 -23 6 -4 -4 2 -15 13 -23 20 -15 20 -15 -2 -10 -13 3 -24
-1 -27 -9 -3 -9 2 -14 14 -14 11 0 20 -5 20 -11 0 -9 -47 -5 -57 5 -4 3 31 86
35 86 2 0 12 -5 23 -10z m585 -49 c15 -30 10 -45 -22 -60 -32 -14 -31 -15 -38
13 -3 13 -9 32 -13 42 -4 12 -3 15 5 10 7 -4 12 -1 12 9 0 25 42 14 56 -14z
m-510 4 c-6 -16 9 -21 18 -6 3 5 26 9 51 9 l45 1 0 -54 c0 -48 -3 -55 -19 -55
-47 0 -66 31 -42 70 14 21 3 32 -20 19 -16 -8 -19 -17 -14 -40 8 -37 -2 -38
-17 -1 l-11 27 -6 -25 c-4 -14 -10 -20 -13 -14 -9 14 12 84 25 84 5 0 7 -7 3
-15z m394 -15 c0 -5 -7 -7 -15 -4 -8 4 -15 1 -15 -4 0 -6 9 -14 21 -17 28 -9
22 -49 -8 -53 -13 -2 -23 1 -23 7 0 5 10 11 23 14 21 3 21 4 -5 15 -27 11 -36
31 -21 45 10 11 43 8 43 -3z m-239 -32 l1 -33 10 33 c12 35 28 43 28 13 0 -11
5 -23 10 -26 6 -4 10 5 10 19 0 14 5 26 10 26 13 0 13 -19 -1 -59 -13 -38 -24
-40 -34 -3 l-8 27 -6 -24 c-11 -40 -26 -34 -37 14 -8 36 -8 45 3 45 8 0 13
-13 14 -32z m149 -13 c0 -25 -4 -45 -10 -45 -5 0 -10 13 -10 29 0 16 -3 36 -6
45 -4 11 -1 16 10 16 12 0 16 -10 16 -45z"/>
<path d="M1845 1300 c-10 -16 4 -50 21 -50 8 0 14 8 14 19 0 23 -25 47 -35 31z"/>
<path d="M1740 1243 c0 -10 4 -24 9 -31 11 -18 34 10 25 32 -8 21 -34 21 -34
-1z"/>
<path d="M753 863 c-24 -2 -43 -9 -43 -14 0 -6 9 -7 21 -4 21 7 21 5 17 -49
-4 -42 -1 -56 9 -56 9 0 13 16 13 56 0 46 3 55 15 50 9 -3 15 0 15 9 0 8 -1
14 -2 13 -2 -1 -22 -3 -45 -5z"/>
<path d="M1097 813 c1 -32 8 -60 15 -65 19 -12 44 -10 56 5 15 18 19 110 4
115 -8 2 -12 -13 -12 -52 0 -49 -2 -56 -20 -56 -23 0 -35 36 -26 80 4 21 2 30
-7 30 -10 0 -12 -16 -10 -57z"/>
<path d="M1210 805 c0 -49 3 -65 14 -65 10 0 12 11 8 45 -2 25 -2 45 1 45 3 0
18 -20 34 -45 15 -25 31 -45 36 -45 4 0 7 25 7 55 0 30 0 58 0 63 0 4 -6 7
-12 7 -9 0 -12 -15 -10 -45 l3 -45 -28 42 c-43 65 -53 63 -53 -12z"/>
<path d="M1387 864 c-3 -3 -2 -14 4 -23 5 -9 15 -34 22 -55 8 -22 18 -41 23
-43 11 -4 58 117 49 125 -9 9 -21 -11 -35 -58 l-14 -45 -15 53 c-15 51 -21 59
-34 46z"/>
<path d="M1728 859 c-27 -15 -21 -42 13 -61 34 -20 30 -42 -8 -35 -15 3 -22 0
-20 -7 5 -16 36 -20 52 -6 24 20 18 49 -11 60 -30 12 -26 36 5 32 15 -1 21 3
19 10 -6 17 -29 20 -50 7z"/>
<path d="M1908 862 c-32 -2 -58 -7 -58 -12 0 -5 7 -7 15 -4 12 5 15 -4 15 -50
0 -40 4 -56 13 -56 10 0 13 14 9 54 -4 55 -4 55 23 52 31 -3 54 -36 55 -78 0
-19 5 -28 16 -28 11 0 13 6 9 19 -3 12 3 37 15 60 24 48 24 51 5 51 -8 0 -15
-8 -15 -17 0 -10 -5 -25 -10 -33 -7 -12 -12 -9 -22 15 -13 29 -15 30 -70 27z"/>
<path d="M2130 862 c-23 -8 -30 -23 -30 -64 0 -27 5 -40 20 -48 43 -23 77 12
68 70 -4 26 -36 50 -58 42z m35 -57 c0 -33 -3 -40 -20 -40 -15 0 -21 8 -23 28
-5 39 5 59 25 55 14 -2 18 -13 18 -43z"/>
<path d="M2245 861 c-29 -6 -30 -8 -30 -63 0 -40 3 -58 12 -58 8 0 11 9 7 29
-6 26 -3 30 22 34 l29 4 -27 2 c-21 1 -28 6 -28 22 0 19 4 21 30 16 17 -4 30
-2 30 3 0 14 -12 17 -45 11z"/>
<path d="M816 803 c2 -59 24 -91 24 -34 0 27 4 31 26 31 22 0 25 -4 22 -27 -2
-15 2 -28 10 -30 9 -4 12 12 12 56 0 45 -4 61 -14 61 -9 0 -12 -8 -8 -25 4
-22 1 -25 -22 -25 -21 0 -26 5 -26 25 0 14 -6 25 -12 25 -9 0 -13 -17 -12 -57z"/>
<path d="M938 800 l4 -60 34 0 c22 0 34 5 34 14 0 9 -8 12 -25 8 -20 -3 -25 0
-25 16 0 13 8 22 23 25 l22 4 -22 2 c-16 1 -23 7 -23 22 0 18 4 20 25 15 14
-4 25 -2 25 4 0 5 -17 10 -37 10 l-38 0 3 -60z"/>
<path d="M1340 800 c0 -41 4 -60 13 -60 8 0 12 19 12 60 0 41 -4 60 -12 60 -9
0 -13 -19 -13 -60z"/>
<path d="M1510 800 l0 -60 35 0 c23 0 35 5 35 14 0 9 -8 12 -25 8 -20 -3 -25
0 -25 16 0 15 8 22 28 25 l27 4 -27 2 c-21 1 -28 6 -28 22 0 17 5 20 25 17 14
-3 25 -1 25 3 0 5 -16 9 -35 9 l-35 0 0 -60z"/>
<path d="M1608 800 c4 -57 22 -87 22 -35 0 14 4 25 8 25 5 0 14 -11 20 -25 6
-14 16 -25 22 -25 13 0 13 13 -2 28 -8 8 -9 18 -1 35 16 34 -1 57 -40 57 l-32
0 3 -60z m57 40 c7 -12 -12 -40 -26 -40 -5 0 -9 11 -9 25 0 25 23 35 35 15z"/>
<path d="M1805 800 c0 -41 4 -60 13 -60 8 0 12 19 12 60 0 41 -4 60 -12 60 -9
0 -13 -19 -13 -60z"/>
<path d="M710 685 c0 -3 6 -16 14 -28 8 -12 25 -68 37 -124 21 -93 25 -103 45
-103 20 0 25 11 47 102 13 55 26 95 29 87 3 -8 13 -53 24 -101 16 -77 21 -88
40 -88 18 0 24 13 48 108 15 59 31 115 36 124 15 26 13 28 -21 28 -26 0 -30
-3 -26 -20 4 -16 -28 -188 -37 -197 -1 -2 -13 46 -26 107 -19 92 -25 110 -41
110 -19 0 -24 -14 -49 -130 -6 -30 -14 -62 -17 -70 -8 -21 -45 150 -38 178 5
20 2 22 -30 22 -19 0 -35 -2 -35 -5z"/>
<path d="M1065 560 l0 -130 83 0 c74 0 82 2 82 19 0 23 -16 36 -25 21 -3 -5
-26 -10 -51 -10 l-44 0 0 45 0 45 50 0 c38 0 50 4 50 15 0 11 -12 15 -50 15
l-50 0 0 40 c0 40 0 40 39 40 22 0 43 -4 46 -10 11 -18 25 -10 25 15 0 25 -1
25 -77 25 l-78 0 0 -130z"/>
<path d="M1272 667 c-42 -45 -27 -80 50 -117 54 -26 69 -50 48 -75 -17 -20
-90 -20 -90 0 0 8 -7 15 -15 15 -20 0 -20 -46 1 -54 29 -11 99 -6 121 9 26 18
37 59 23 85 -6 11 -33 31 -61 45 -55 28 -68 47 -49 70 14 17 70 21 70 5 0 -5
7 -10 15 -10 9 0 15 9 15 25 0 24 -3 25 -53 25 -43 0 -58 -5 -75 -23z"/>
<path d="M1430 670 c0 -19 4 -20 36 -14 l36 7 -3 -117 -4 -116 25 0 25 0 -4
115 -3 115 25 0 c14 0 29 -5 32 -10 9 -15 25 -2 25 21 0 17 -8 19 -95 19 -89
0 -95 -1 -95 -20z"/>
<path d="M1640 682 c0 -5 3 -11 6 -14 3 -4 6 -52 6 -108 0 -56 -3 -104 -6
-108 -17 -17 2 -22 79 -22 77 0 85 2 85 19 0 23 -16 36 -25 21 -3 -5 -26 -10
-51 -10 l-44 0 0 45 0 45 50 0 c38 0 50 4 50 15 0 11 -12 15 -50 15 l-50 0 0
40 0 40 45 0 c25 0 45 -4 45 -10 0 -5 5 -10 10 -10 6 0 10 11 10 25 0 25 -1
25 -80 25 -44 0 -80 -4 -80 -8z"/>
<path d="M1845 560 l0 -130 27 0 c27 0 27 1 21 50 -5 46 -4 50 15 50 15 0 29
-15 48 -50 21 -38 33 -50 51 -50 12 0 23 2 23 5 0 2 -14 25 -32 50 l-32 45 22
23 c15 16 22 36 22 65 0 55 -25 72 -105 72 l-60 0 0 -130z m119 84 c33 -32 5
-84 -46 -84 -27 0 -28 2 -28 50 0 49 1 50 29 50 16 0 37 -7 45 -16z"/>
<path d="M2050 681 c0 -6 5 -13 10 -16 6 -3 10 -50 10 -105 0 -55 -4 -102 -10
-105 -21 -13 -9 -25 25 -25 24 0 35 5 35 14 0 8 -5 16 -10 18 -7 2 -10 33 -8
81 l3 78 68 -95 c37 -53 74 -96 82 -96 12 0 15 21 15 120 0 73 4 120 10 120 6
0 10 5 10 10 0 6 -15 10 -34 10 -33 0 -34 -1 -30 -37 8 -89 12 -153 9 -153 -2
0 -33 43 -70 95 -53 76 -71 95 -90 95 -14 0 -25 -4 -25 -9z"/>
<path d="M784 365 c6 -17 -50 -181 -65 -191 -19 -11 -8 -24 21 -24 28 0 30 3
28 28 -3 26 -2 27 47 27 48 0 50 -1 48 -27 -2 -25 2 -28 28 -28 27 0 39 13 21
24 -5 3 -25 50 -46 105 -34 91 -41 101 -63 101 -18 0 -24 -4 -19 -15z m66
-127 c0 -5 -16 -8 -36 -8 -27 0 -35 4 -31 14 3 8 11 33 18 56 l12 41 19 -48
c10 -26 18 -51 18 -55z"/>
<path d="M915 371 c-3 -5 -1 -12 5 -16 5 -3 10 -42 10 -86 0 -66 3 -82 20 -99
29 -29 84 -27 115 5 22 21 25 33 25 99 0 41 3 81 6 90 5 13 -1 16 -25 16 -30
0 -41 -13 -21 -25 13 -8 13 -131 0 -156 -8 -13 -21 -19 -45 -19 -43 0 -50 20
-43 126 5 72 4 74 -18 74 -13 0 -25 -4 -29 -9z"/>
<path d="M1142 364 c-17 -12 -22 -24 -20 -47 3 -27 11 -36 52 -57 54 -28 64
-43 46 -65 -13 -16 -70 -21 -70 -6 0 5 -7 11 -15 15 -11 4 -15 -1 -15 -19 0
-52 123 -41 137 13 8 34 -5 53 -55 77 -46 22 -58 41 -41 61 13 16 59 19 59 4
0 -5 7 -10 16 -10 10 0 14 7 12 23 -2 18 -10 23 -43 25 -25 2 -49 -3 -63 -14z"/>
<path d="M1270 360 c0 -18 4 -20 35 -14 l35 6 0 -85 c0 -47 -4 -89 -10 -92
-19 -12 -10 -25 18 -25 l28 0 -4 101 -4 102 37 -7 c32 -6 36 -5 33 11 -3 15
-15 18 -86 21 -77 3 -82 2 -82 -18z"/>
<path d="M1468 285 c3 -59 0 -101 -7 -109 -14 -16 -4 -26 25 -26 22 0 23 3 17
45 -5 40 -4 45 14 45 13 0 26 -15 41 -45 15 -31 28 -45 42 -45 26 0 25 2 -6
50 l-26 39 21 27 c27 35 27 59 -4 89 -19 20 -34 25 -72 25 l-48 0 3 -95z m100
27 c3 -27 -1 -34 -23 -42 -41 -16 -45 -13 -45 36 0 45 0 45 33 42 28 -3 32 -7
35 -36z"/>
<path d="M1694 364 c7 -18 -39 -170 -55 -179 -5 -4 -9 -13 -9 -21 0 -11 8 -14
28 -12 23 3 27 7 24 31 -3 26 -2 27 49 27 l52 0 -6 -30 c-6 -28 -4 -30 23 -30
30 0 39 16 21 36 -5 5 -25 49 -44 99 -31 81 -37 90 -62 93 -23 3 -27 1 -21
-14z m54 -80 c16 -55 17 -54 -22 -54 l-33 0 16 55 c18 60 22 60 39 -1z"/>
<path d="M1855 265 l0 -115 68 0 c59 0 67 2 67 19 0 16 -6 17 -50 13 l-50 -5
0 86 c0 47 5 89 10 92 19 12 10 25 -17 25 l-28 0 0 -115z"/>
<path d="M2015 265 c0 -112 1 -115 22 -115 24 0 39 15 23 25 -13 8 -13 172 0
180 19 12 10 25 -17 25 l-28 0 0 -115z"/>
<path d="M2151 358 c2 -24 -47 -167 -62 -182 -16 -18 -9 -26 20 -26 26 0 30 3
28 28 -2 26 1 27 46 30 48 3 52 0 48 -40 -2 -13 5 -18 22 -18 34 0 38 8 18 43
-10 18 -31 67 -47 110 -24 65 -32 77 -51 77 -17 0 -22 -5 -22 -22z m69 -125
c0 -2 -16 -3 -35 -3 -39 0 -40 2 -24 51 6 19 13 41 16 49 3 11 39 -71 43 -97z"/>
</g>
</svg>
